<?xml version="1.0" encoding="UTF-8"?>
<svg height="128px" viewBox="0 0 128 128" width="128px" xmlns="http://www.w3.org/2000/svg" xmlns:xlink="http://www.w3.org/1999/xlink">
    <filter id="a" height="100%" width="100%" x="0%" y="0%">
        <feColorMatrix color-interpolation-filters="sRGB" values="0 0 0 0 1 0 0 0 0 1 0 0 0 0 1 0 0 0 1 0"/>
    </filter>
    <linearGradient id="b" gradientUnits="userSpaceOnUse">
        <stop offset="0" stop-color="#c0bfbc"/>
        <stop offset="0.846154" stop-color="#c0bfbc"/>
        <stop offset="0.923077" stop-color="#deddda"/>
        <stop offset="1" stop-color="#c0bfbc"/>
    </linearGradient>
    <linearGradient id="c" x1="64.563629" x2="116.563629" xlink:href="#b" y1="76.331055" y2="76.331055"/>
    <linearGradient id="d" gradientUnits="userSpaceOnUse" x1="40.563629" x2="40.563629" y1="29.331047" y2="141.847565">
        <stop offset="0" stop-color="#edece9"/>
        <stop offset="1" stop-color="#ffffff"/>
    </linearGradient>
    <linearGradient id="e" gradientTransform="matrix(-1 0 0 1 128.563629 -170.668945)" x1="64" x2="116" xlink:href="#b" y1="247" y2="247"/>
    <linearGradient id="f" gradientUnits="userSpaceOnUse">
        <stop offset="0" stop-color="#f6f5f4"/>
        <stop offset="0.5" stop-color="#ffffff"/>
        <stop offset="1" stop-color="#dddbd8"/>
    </linearGradient>
    <linearGradient id="g" gradientTransform="matrix(-0.25 0 0 0.25 168.563629 26.331055)" x1="384" x2="448" xlink:href="#f" y1="120" y2="120"/>
    <linearGradient id="h" x1="48.563599" x2="64.563599" xlink:href="#f" y1="56.331055" y2="56.331055"/>
    <clipPath id="i">
        <path d="m 0 0 h 69 v 77 h -69 z m 0 0"/>
    </clipPath>
    <clipPath id="j">
        <rect height="128" width="128"/>
    </clipPath>
    <clipPath id="k">
        <rect height="128" width="128"/>
    </clipPath>
    <mask id="l">
        <g filter="url(#a)">
            <g clip-path="url(#k)" filter="url(#a)">
                <g clip-path="url(#j)">
                    <path d="m 16.5625 41.332031 c -4.429688 0 -8 3.566407 -8 8 v 60 c 0 4.429688 3.570312 8 8 8 h 96 c 4.433594 0 8 -3.570312 8 -8 v -60 c 0 -4.433593 -3.566406 -8 -8 -8 z m 0 0" fill="#26a269"/>
                    <path d="m 60.5625 37.332031 v 78 h 52 c 4.433594 0 8 -3.570312 8 -8 v -61.648437 c 0 -4.429688 -3.566406 -8 -8 -8 z m 0 0" fill="url(#c)"/>
                    <path d="m 60.5625 29.332031 v 86 h -44 c -4.429688 0 -8 -3.570312 -8 -8 v -70 c 0 -4.433593 3.570312 -8 8 -8 z m 0 0" fill="url(#d)"/>
                    <path d="m 68.5625 37.332031 v 78 h -52 c -4.429688 0 -8 -3.570312 -8 -8 v -61.648437 c 0 -4.429688 3.570312 -8 8 -8 z m 0 0" fill="url(#e)"/>
                    <path d="m 72.5625 21.332031 c -4.429688 0 -8 3.566407 -8 8 v 86 c 0 -4.433593 3.570312 -8 8 -8 h 40 c 4.433594 0 8 -3.570312 8 -8 v -70 c 0 -4.433593 -3.566406 -8 -8 -8 z m 0 0" fill="url(#g)"/>
                    <path d="m 56.5625 21.332031 c 4.433594 0 8 3.566407 8 8 v 86 c 0 -4.433593 -3.566406 -8 -8 -8 h -40 c -4.429688 0 -8 -3.570312 -8 -8 v -70 c 0 -4.433593 3.570312 -8 8 -8 z m 0 0" fill="url(#h)"/>
                    <path d="m 88.585938 34.96875 v 6.910156 c -0.71875 -0.335937 -1.539063 -0.546875 -2.386719 -0.546875 c -3.054688 0 -5.566407 2.507813 -5.566407 5.566407 c 0 3.058593 2.511719 5.566406 5.566407 5.566406 c 3.039062 0 5.539062 -2.484375 5.570312 -5.515625 v -11.078125 c 0 -0.5 0.402344 -0.902344 0.898438 -0.902344 h 7.742187 c 0.5 0 0.902344 0.402344 0.902344 0.902344 v 6.007812 c -0.722656 -0.335937 -1.542969 -0.546875 -2.386719 -0.546875 c -3.054687 0 -5.566406 2.507813 -5.566406 5.566407 c 0 3.058593 2.511719 5.566406 5.566406 5.566406 c 3.019531 0 5.511719 -2.460938 5.566407 -5.46875 v -12.027344 c 0 -2.636719 -2.136719 -4.773438 -4.769532 -4.773438 h -6.363281 c -2.636719 0 -4.773437 2.136719 -4.773437 4.773438 z m 0 0" fill="#2ec27e"/>
                    <path d="m 73.125 59.875 h 40.125" fill="none" stroke="#9a9996" stroke-width="2"/>
                    <path d="m 73.125 69.875 h 40.125" fill="none" stroke="#9a9996" stroke-width="2"/>
                    <path d="m 73.125 79.875 h 40.125" fill="none" stroke="#9a9996" stroke-width="2"/>
                    <path d="m 73.125 89.875 h 40.125" fill="none" stroke="#9a9996" stroke-width="2"/>
                    <path d="m 73.125 99.875 h 40.125" fill="none" stroke="#9a9996" stroke-width="2"/>
                    <path d="m 32.949219 31.644531 v 4.835938 c -0.503907 -0.234375 -1.078125 -0.382813 -1.667969 -0.382813 c -2.140625 0 -3.898438 1.757813 -3.898438 3.898438 c 0 2.136718 1.757813 3.894531 3.898438 3.894531 c 2.125 0 3.875 -1.738281 3.894531 -3.863281 v -7.75 c 0 -0.347656 0.285157 -0.632813 0.632813 -0.632813 h 5.417968 c 0.347657 0 0.628907 0.285157 0.628907 0.632813 v 4.203125 c -0.503907 -0.234375 -1.078125 -0.382813 -1.667969 -0.382813 c -2.140625 0 -3.898438 1.757813 -3.898438 3.898438 c 0 2.136718 1.757813 3.894531 3.898438 3.894531 c 2.113281 0 3.855469 -1.722656 3.894531 -3.828125 v -8.417969 c 0 -1.84375 -1.496093 -3.339843 -3.339843 -3.339843 h -4.453126 c -1.84375 0 -3.339843 1.496093 -3.339843 3.339843 z m 0 0" fill="#2ec27e"/>
                    <path d="m 16 49.875 h 40.125" fill="none" stroke="#9a9996" stroke-width="2"/>
                    <path d="m 16 59.875 h 40.125" fill="none" stroke="#9a9996" stroke-width="2"/>
                    <path d="m 16 69.875 h 40.125" fill="none" stroke="#9a9996" stroke-width="2"/>
                    <path d="m 16 79.875 h 40.125" fill="none" stroke="#9a9996" stroke-width="2"/>
                    <path d="m 16 89.875 h 40.125" fill="none" stroke="#9a9996" stroke-width="2"/>
                    <path d="m 16 99.875 h 40.125" fill="none" stroke="#9a9996" stroke-width="2"/>
                    <path d="m 53.425781 39.910156 c 0 13.25 -10.742187 23.992188 -23.992187 23.992188 s -23.992188 -10.742188 -23.992188 -23.992188 s 10.742188 -23.992187 23.992188 -23.992187 s 23.992187 10.742187 23.992187 23.992187 z m 0 0" fill="#26a269" fill-rule="evenodd"/>
                    <path d="m 52.140625 37.351562 c 0 12.417969 -10.164063 22.484376 -22.707031 22.484376 c -12.542969 0 -22.707032 -10.066407 -22.707032 -22.484376 c 0 -12.417968 10.164063 -22.484374 22.707032 -22.484374 c 12.542968 0 22.707031 10.066406 22.707031 22.484374 z m 0 0" fill="#e9e9e9" fill-rule="evenodd"/>
                    <path d="m 27.542969 14.566406 h 3.25 v 6.386719 h -3.25 z m -11.015625 3.824219 l 2.816406 -1.625 l 3.191406 5.527344 l -2.8125 1.625 z m -7.625 8.816406 l 1.625 -2.8125 l 5.527344 3.191407 l -1.625 2.8125 z m -2.199219 11.449219 v -3.25 h 6.386719 v 3.25 z m 3.824219 11.015625 l -1.625 -2.8125 l 5.527344 -3.195313 l 1.625 2.816407 z m 8.816406 7.628906 l -2.816406 -1.625 l 3.195312 -5.53125 l 2.8125 1.625 z m 11.449219 2.195313 h -3.25 v -6.382813 h 3.25 z m 11.015625 -3.820313 l -2.816406 1.625 l -3.191407 -5.53125 l 2.8125 -1.625 z m 7.625 -8.816406 l -1.621094 2.8125 l -5.53125 -3.191406 l 1.625 -2.816407 z m 2.199218 -11.453125 v 3.25 h -6.386718 v -3.25 z m -3.820312 -11.011719 l 1.621094 2.8125 l -5.527344 3.191407 l -1.625 -2.8125 z m -8.820312 -7.628906 l 2.816406 1.625 l -3.195313 5.527344 l -2.8125 -1.625 z m 0 0" fill="#5e5c64" fill-rule="evenodd"/>
                    <g clip-path="url(#i)">
                        <path d="m 51.664062 37.03125 c 0 12.425781 -10.070312 22.496094 -22.496093 22.496094 s -22.496094 -10.070313 -22.496094 -22.496094 c 0 -12.421875 10.070313 -22.496094 22.496094 -22.496094 s 22.496093 10.074219 22.496093 22.496094 z m 0 0" fill="none" stroke="#2ec27e" stroke-width="2.990035"/>
                    </g>
                    <path d="m 31.082031 36.769531 c 0 1.058594 -0.855469 1.914063 -1.914062 1.914063 c -1.058594 0 -1.914063 -0.855469 -1.914063 -1.914063 c 0 -1.054687 0.855469 -14.628906 1.914063 -14.628906 c 1.058593 0 1.914062 13.574219 1.914062 14.628906 z m 0 0" fill="#990200" fill-rule="evenodd"/>
                    <path d="m 30.144531 38.703125 c -0.914062 0.53125 -2.085937 0.214844 -2.613281 -0.699219 c -0.527344 -0.914062 -0.214844 -2.085937 0.699219 -2.613281 c 0.917969 -0.53125 15.628906 -8.035156 16.15625 -7.121094 c 0.53125 0.917969 -13.324219 9.90625 -14.242188 10.433594 z m 0 0" fill="#161616" fill-rule="evenodd"/>
                    <path d="m 30.125 38.429688 c -0.914062 0.527343 -2.085938 0.214843 -2.613281 -0.703126 c -0.527344 -0.914062 -0.214844 -2.085937 0.699219 -2.613281 c 0.914062 -0.527343 15.628906 -8.035156 16.15625 -7.117187 c 0.527343 0.914062 -13.328126 9.902344 -14.242188 10.433594 z m 0 0" fill="#282828" fill-rule="evenodd"/>
                    <path d="m 31.082031 37.03125 c 0 1.058594 -0.855469 1.914062 -1.914062 1.914062 c -1.058594 0 -1.914063 -0.855468 -1.914063 -1.914062 c 0 -1.054688 0.855469 -1.914062 1.914063 -1.914062 c 1.058593 0 1.914062 0.859374 1.914062 1.914062 z m 0 0" fill="#4b6e86" fill-rule="evenodd"/>
                    <path d="m 31.082031 36.589844 c 0 1.054687 -0.855469 1.914062 -1.914062 1.914062 c -1.058594 0 -1.914063 -0.859375 -1.914063 -1.914062 c 0 -1.058594 0.855469 -1.914063 1.914063 -1.914063 c 1.058593 0 1.914062 0.855469 1.914062 1.914063 z m 0 0" fill="#557c99" fill-rule="evenodd"/>
                </g>
            </g>
        </g>
    </mask>
    <mask id="m">
        <g filter="url(#a)">
            <rect fill-opacity="0.8" height="184.32" width="184.32" x="-28.16" y="-28.16"/>
        </g>
    </mask>
    <linearGradient id="n" gradientTransform="matrix(0 0.37 -0.98462 0 295.38501 -30.360001)" gradientUnits="userSpaceOnUse" x1="300" x2="428" y1="235" y2="235">
        <stop offset="0" stop-color="#f9f06b"/>
        <stop offset="1" stop-color="#f5c211"/>
    </linearGradient>
    <clipPath id="o">
        <rect height="128" width="128"/>
    </clipPath>
    <clipPath id="p">
        <rect height="128" width="128"/>
    </clipPath>
    <path d="m 16.5625 41.332031 c -4.429688 0 -8 3.566407 -8 8 v 60 c 0 4.429688 3.570312 8 8 8 h 96 c 4.433594 0 8 -3.570312 8 -8 v -60 c 0 -4.433593 -3.566406 -8 -8 -8 z m 0 0" fill="#26a269"/>
    <path d="m 60.5625 37.332031 v 78 h 52 c 4.433594 0 8 -3.570312 8 -8 v -61.648437 c 0 -4.429688 -3.566406 -8 -8 -8 z m 0 0" fill="url(#c)"/>
    <path d="m 60.5625 29.332031 v 86 h -44 c -4.429688 0 -8 -3.570312 -8 -8 v -70 c 0 -4.433593 3.570312 -8 8 -8 z m 0 0" fill="url(#d)"/>
    <path d="m 68.5625 37.332031 v 78 h -52 c -4.429688 0 -8 -3.570312 -8 -8 v -61.648437 c 0 -4.429688 3.570312 -8 8 -8 z m 0 0" fill="url(#e)"/>
    <path d="m 72.5625 21.332031 c -4.429688 0 -8 3.566407 -8 8 v 86 c 0 -4.433593 3.570312 -8 8 -8 h 40 c 4.433594 0 8 -3.570312 8 -8 v -70 c 0 -4.433593 -3.566406 -8 -8 -8 z m 0 0" fill="url(#g)"/>
    <path d="m 56.5625 21.332031 c 4.433594 0 8 3.566407 8 8 v 86 c 0 -4.433593 -3.566406 -8 -8 -8 h -40 c -4.429688 0 -8 -3.570312 -8 -8 v -70 c 0 -4.433593 3.570312 -8 8 -8 z m 0 0" fill="url(#h)"/>
    <path d="m 88.585938 34.96875 v 6.910156 c -0.71875 -0.335937 -1.539063 -0.546875 -2.386719 -0.546875 c -3.054688 0 -5.566407 2.507813 -5.566407 5.566407 c 0 3.058593 2.511719 5.566406 5.566407 5.566406 c 3.039062 0 5.539062 -2.484375 5.570312 -5.515625 v -11.078125 c 0 -0.5 0.402344 -0.902344 0.898438 -0.902344 h 7.742187 c 0.5 0 0.902344 0.402344 0.902344 0.902344 v 6.007812 c -0.722656 -0.335937 -1.542969 -0.546875 -2.386719 -0.546875 c -3.054687 0 -5.566406 2.507813 -5.566406 5.566407 c 0 3.058593 2.511719 5.566406 5.566406 5.566406 c 3.019531 0 5.511719 -2.460938 5.566407 -5.46875 v -12.027344 c 0 -2.636719 -2.136719 -4.773438 -4.769532 -4.773438 h -6.363281 c -2.636719 0 -4.773437 2.136719 -4.773437 4.773438 z m 0 0" fill="#2ec27e"/>
    <path d="m 73.125 59.875 h 40.125" fill="none" stroke="#9a9996" stroke-width="2"/>
    <path d="m 73.125 69.875 h 40.125" fill="none" stroke="#9a9996" stroke-width="2"/>
    <path d="m 73.125 79.875 h 40.125" fill="none" stroke="#9a9996" stroke-width="2"/>
    <path d="m 73.125 89.875 h 40.125" fill="none" stroke="#9a9996" stroke-width="2"/>
    <path d="m 73.125 99.875 h 40.125" fill="none" stroke="#9a9996" stroke-width="2"/>
    <path d="m 32.949219 31.644531 v 4.835938 c -0.503907 -0.234375 -1.078125 -0.382813 -1.667969 -0.382813 c -2.140625 0 -3.898438 1.757813 -3.898438 3.898438 c 0 2.136718 1.757813 3.894531 3.898438 3.894531 c 2.125 0 3.875 -1.738281 3.894531 -3.863281 v -7.75 c 0 -0.347656 0.285157 -0.632813 0.632813 -0.632813 h 5.417968 c 0.347657 0 0.628907 0.285157 0.628907 0.632813 v 4.203125 c -0.503907 -0.234375 -1.078125 -0.382813 -1.667969 -0.382813 c -2.140625 0 -3.898438 1.757813 -3.898438 3.898438 c 0 2.136718 1.757813 3.894531 3.898438 3.894531 c 2.113281 0 3.855469 -1.722656 3.894531 -3.828125 v -8.417969 c 0 -1.84375 -1.496093 -3.339843 -3.339843 -3.339843 h -4.453126 c -1.84375 0 -3.339843 1.496093 -3.339843 3.339843 z m 0 0" fill="#2ec27e"/>
    <g fill="none" stroke="#9a9996" stroke-width="2">
        <path d="m 16 49.875 h 40.125"/>
        <path d="m 16 59.875 h 40.125"/>
        <path d="m 16 69.875 h 40.125"/>
        <path d="m 16 79.875 h 40.125"/>
        <path d="m 16 89.875 h 40.125"/>
        <path d="m 16 99.875 h 40.125"/>
    </g>
    <path d="m 53.425781 39.910156 c 0 13.25 -10.742187 23.992188 -23.992187 23.992188 s -23.992188 -10.742188 -23.992188 -23.992188 s 10.742188 -23.992187 23.992188 -23.992187 s 23.992187 10.742187 23.992187 23.992187 z m 0 0" fill="#26a269" fill-rule="evenodd"/>
    <path d="m 52.140625 37.351562 c 0 12.417969 -10.164063 22.484376 -22.707031 22.484376 c -12.542969 0 -22.707032 -10.066407 -22.707032 -22.484376 c 0 -12.417968 10.164063 -22.484374 22.707032 -22.484374 c 12.542968 0 22.707031 10.066406 22.707031 22.484374 z m 0 0" fill="#e9e9e9" fill-rule="evenodd"/>
    <path d="m 27.542969 14.566406 h 3.25 v 6.386719 h -3.25 z m -11.015625 3.824219 l 2.816406 -1.625 l 3.191406 5.527344 l -2.8125 1.625 z m -7.625 8.816406 l 1.625 -2.8125 l 5.527344 3.191407 l -1.625 2.8125 z m -2.199219 11.449219 v -3.25 h 6.386719 v 3.25 z m 3.824219 11.015625 l -1.625 -2.8125 l 5.527344 -3.195313 l 1.625 2.816407 z m 8.816406 7.628906 l -2.816406 -1.625 l 3.195312 -5.53125 l 2.8125 1.625 z m 11.449219 2.195313 h -3.25 v -6.382813 h 3.25 z m 11.015625 -3.820313 l -2.816406 1.625 l -3.191407 -5.53125 l 2.8125 -1.625 z m 7.625 -8.816406 l -1.621094 2.8125 l -5.53125 -3.191406 l 1.625 -2.816407 z m 2.199218 -11.453125 v 3.25 h -6.386718 v -3.25 z m -3.820312 -11.011719 l 1.621094 2.8125 l -5.527344 3.191407 l -1.625 -2.8125 z m -8.820312 -7.628906 l 2.816406 1.625 l -3.195313 5.527344 l -2.8125 -1.625 z m 0 0" fill="#5e5c64" fill-rule="evenodd"/>
    <path d="m 51.664062 37.03125 c 0 12.425781 -10.070312 22.496094 -22.496093 22.496094 s -22.496094 -10.070313 -22.496094 -22.496094 c 0 -12.421875 10.070313 -22.496094 22.496094 -22.496094 s 22.496093 10.074219 22.496093 22.496094 z m 0 0" fill="none" stroke="#2ec27e" stroke-width="2.990035"/>
    <path d="m 31.082031 36.769531 c 0 1.058594 -0.855469 1.914063 -1.914062 1.914063 c -1.058594 0 -1.914063 -0.855469 -1.914063 -1.914063 c 0 -1.054687 0.855469 -14.628906 1.914063 -14.628906 c 1.058593 0 1.914062 13.574219 1.914062 14.628906 z m 0 0" fill="#990200" fill-rule="evenodd"/>
    <path d="m 30.144531 38.703125 c -0.914062 0.53125 -2.085937 0.214844 -2.613281 -0.699219 c -0.527344 -0.914062 -0.214844 -2.085937 0.699219 -2.613281 c 0.917969 -0.53125 15.628906 -8.035156 16.15625 -7.121094 c 0.53125 0.917969 -13.324219 9.90625 -14.242188 10.433594 z m 0 0" fill="#161616" fill-rule="evenodd"/>
    <path d="m 30.125 38.429688 c -0.914062 0.527343 -2.085938 0.214843 -2.613281 -0.703126 c -0.527344 -0.914062 -0.214844 -2.085937 0.699219 -2.613281 c 0.914062 -0.527343 15.628906 -8.035156 16.15625 -7.117187 c 0.527343 0.914062 -13.328126 9.902344 -14.242188 10.433594 z m 0 0" fill="#282828" fill-rule="evenodd"/>
    <path d="m 31.082031 37.03125 c 0 1.058594 -0.855469 1.914062 -1.914062 1.914062 c -1.058594 0 -1.914063 -0.855468 -1.914063 -1.914062 c 0 -1.054688 0.855469 -1.914062 1.914063 -1.914062 c 1.058593 0 1.914062 0.859374 1.914062 1.914062 z m 0 0" fill="#4b6e86" fill-rule="evenodd"/>
    <path d="m 31.082031 36.589844 c 0 1.054687 -0.855469 1.914062 -1.914062 1.914062 c -1.058594 0 -1.914063 -0.859375 -1.914063 -1.914062 c 0 -1.058594 0.855469 -1.914063 1.914063 -1.914063 c 1.058593 0 1.914062 0.855469 1.914062 1.914063 z m 0 0" fill="#557c99" fill-rule="evenodd"/>
    <g mask="url(#l)">
        <g clip-path="url(#p)">
            <g mask="url(#m)">
                <g clip-path="url(#o)">
                    <path d="m 128 80.640625 v 47.359375 h -128 v -47.359375 z m 0 0" fill="url(#n)"/>
                    <path d="m 13.308594 80.640625 l 47.355468 47.359375 h 21.214844 l -47.359375 -47.359375 z m 42.421875 0 l 47.363281 47.359375 h 21.214844 l -47.363282 -47.359375 z m 42.429687 0 l 29.839844 29.839844 v -21.210938 l -8.628906 -8.628906 z m -98.160156 7.90625 v 21.214844 l 18.238281 18.238281 h 21.214844 z m 0 0"/>
                </g>
            </g>
        </g>
    </g>
</svg>
